<svg xmlns="http://www.w3.org/2000/svg" xmlns:xlink="http://www.w3.org/1999/xlink" viewBox="0,0,256,256" width="48px" height="48px"><g fill="none" fill-rule="nonzero" stroke="none" stroke-width="1" stroke-linecap="butt" stroke-linejoin="miter" stroke-miterlimit="10" stroke-dasharray="" stroke-dashoffset="0" font-family="none" font-weight="none" font-size="none" text-anchor="none" style="mix-blend-mode: normal"><g transform="scale(5.33333,5.33333)"><path d="M16,39h16v6h-16zM39,18c0,0 0,0.1 0,0c-0.3,-3.8 -1.8,-7.2 -4.2,-9.8c-1.8,-1.9 -4.1,-3.1 -6.8,-3.8c-0.8,-0.4 -1.6,-0.8 -2.3,-1.4l-1.1,-0.9c-0.4,-0.3 -0.9,-0.3 -1.3,0l-1.1,0.9c-0.7,0.6 -1.5,1 -2.3,1.4c-2.6,0.6 -4.9,1.9 -6.7,3.8c-2.5,2.5 -3.9,5.9 -4.2,9.7c0,0 0,0 -0.1,0c0,0 -2,1.7 -2,2c0.1,2.6 0.4,4.8 0.8,7c0.1,0.3 2.3,1 2.3,1c0.2,1 0.5,2 0.8,3l1.1,2h24l1.1,-2c0.3,-1 0.5,-2 0.8,-3c0,0 2.2,-0.7 2.3,-1c0.5,-2.2 0.8,-4.4 0.9,-7c0,-0.2 -2,-1.9 -2,-1.9z" fill="#bdbdbd"></path><path d="M12,32h24v4h-24z" fill="#7e7e7e"></path><path d="M24,42c-3.7,0 -6.2,-1.5 -7.7,-2.7c-0.8,-0.7 -1.4,-1.6 -1.7,-2.6c-1.3,-4.9 -3.5,-10.6 -3.6,-17c-0.2,-7.2 4.3,-13.7 13,-13.7c8.7,0 13.2,6.5 13,13.7c-0.2,6.3 -2.3,12.1 -3.6,17c-0.3,1 -0.8,2 -1.7,2.6c-1.5,1.2 -4,2.7 -7.7,2.7z" fill="#9c9c9c"></path><path d="M26,36h-4c-0.6,0 -1,-0.4 -1,-1c0,-0.6 0.4,-1 1,-1h4c0.6,0 1,0.4 1,1c0,0.6 -0.4,1 -1,1z" fill="#ffffff"></path><path d="M27,32l-3,-3l-3,3l-6,-6l4,-2h10l4,2z" fill="#474742"></path><path d="M29,18c-2.8,0 -4.3,2.3 -5,3c-0.7,-0.7 -2.2,-3 -5,-3c-2.8,0 -5,2.2 -5,5c0,2.8 2.2,5 5,5c2.9,0 5,-3 5,-3c0,0 2.1,3 5,3c2.8,0 5,-2.2 5,-5c0,-2.8 -2.2,-5 -5,-5z" fill="#bdbdbd"></path><path d="M22,23c0,1.7 -1.3,3 -3,3c-1.7,0 -3,-1.3 -3,-3c0,-1.7 1.3,-3 3,-3c1.7,0 3,1.3 3,3zM32,23c0,1.7 -1.3,3 -3,3c-1.7,0 -3,-1.3 -3,-3c0,-1.7 1.3,-3 3,-3c1.7,0 3,1.3 3,3z" fill="#41413e"></path><path d="M30,23c0,0.6 -0.4,1 -1,1c-0.6,0 -1,-0.4 -1,-1c0,-0.6 0.4,-1 1,-1c0.6,0 1,0.4 1,1z" fill="#ffffff"></path><path d="M25,4c0,0.6 -0.4,1 -1,1c-0.6,0 -1,-0.4 -1,-1c0,-0.6 0.4,-1 1,-1c0.6,0 1,0.4 1,1z" fill="#9c9c9c"></path><path d="M20,23c0,0.6 -0.4,1 -1,1c-0.6,0 -1,-0.4 -1,-1c0,-0.6 0.4,-1 1,-1c0.6,0 1,0.4 1,1z" fill="#ffffff"></path><path d="M12,38c-0.6,0 -1,-0.4 -1,-1v-6c0,-0.6 0.4,-1 1,-1c0.6,0 1,0.4 1,1v6c0,0.6 -0.4,1 -1,1z" fill="#6d6d6c"></path><path d="M33,46h-18c-0.6,0 -1,-0.4 -1,-1c0,-0.6 0.4,-1 1,-1h18c0.6,0 1,0.4 1,1c0,0.6 -0.4,1 -1,1z" fill="#9c9c9c"></path><path d="M36,38c-0.6,0 -1,-0.4 -1,-1v-6c0,-0.6 0.4,-1 1,-1c0.6,0 1,0.4 1,1v6c0,0.6 -0.4,1 -1,1z" fill="#6d6d6c"></path></g></g></svg>